<svg width="39" height="31" viewBox="0 0 39 31" fill="none" xmlns="http://www.w3.org/2000/svg">
<path d="M5.2286 30.62H33.6159C36.9961 30.62 38.7801 28.876 38.7801 25.5436V9.19341C38.7801 5.86108 36.9961 4.11706 33.6159 4.11706H29.3437C28.1231 4.11706 27.7319 3.91462 26.9651 3.12047L25.7288 1.79688C24.9151 0.940439 24.0857 0.520004 22.4895 0.520004H16.2768C14.6806 0.520004 13.8669 0.940439 13.0375 1.79688L11.8012 3.12047C11.05 3.89905 10.6432 4.11706 9.42254 4.11706H5.2286C1.84842 4.11706 0.0800781 5.86108 0.0800781 9.19341V25.5436C0.0800781 28.876 1.84842 30.62 5.2286 30.62ZM5.43204 27.5212C4.00798 27.5212 3.19423 26.7738 3.19423 25.2634V9.4737C3.19423 7.97882 4.00798 7.23139 5.43204 7.23139H10.3302C11.7386 7.23139 12.4584 6.98224 13.2565 6.1258L14.4459 4.81778C15.3222 3.86791 15.7917 3.61876 17.1688 3.61876H21.5975C22.9746 3.61876 23.444 3.86791 24.3047 4.80221L25.5097 6.1258C26.3078 6.98224 27.0277 7.23139 28.4361 7.23139H33.4125C34.8522 7.23139 35.6503 7.97882 35.6503 9.4737V25.2634C35.6503 26.7738 34.8522 27.5212 33.4125 27.5212H5.43204ZM19.4223 25.4658C24.117 25.4658 27.8727 21.7286 27.8727 17.0415C27.8727 12.3545 24.117 8.61726 19.4223 8.61726C14.7432 8.61726 10.9874 12.3545 10.9874 17.0415C10.9874 21.7286 14.7432 25.4658 19.4223 25.4658ZM28.4048 11.4669C28.4048 12.6036 29.3281 13.4912 30.4548 13.4756C31.5502 13.4756 32.4735 12.588 32.4735 11.4669C32.4735 10.3769 31.5346 9.44256 30.4548 9.44256C29.3281 9.44256 28.4048 10.3769 28.4048 11.4669ZM19.4223 22.6317C16.3394 22.6317 13.8199 20.1403 13.8199 17.0415C13.8199 13.9272 16.3238 11.4513 19.4223 11.4513C22.5364 11.4513 25.0402 13.9272 25.0402 17.0415C25.0402 20.1403 22.5364 22.6317 19.4223 22.6317Z" fill="#00DFDD"/>
</svg>
