<svg width="100" height="100" viewBox="0 0 100 100" fill="none" xmlns="http://www.w3.org/2000/svg">
<circle cx="50" cy="50" r="50" fill="#C4C4C4" fill-opacity="0.5"/>
<path d="M33.9867 67H66.9951C70.9256 67 73 64.9721 73 61.0973V42.0854C73 38.2106 70.9256 36.1826 66.9951 36.1826H62.0275C60.6082 36.1826 60.1533 35.9472 59.2616 35.0238L57.8241 33.4847C56.8779 32.4889 55.9135 32 54.0574 32H46.8334C44.9774 32 44.0311 32.4889 43.0667 33.4847L41.6292 35.0238C40.7558 35.9291 40.2827 36.1826 38.8633 36.1826H33.9867C30.0562 36.1826 28 38.2106 28 42.0854V61.0973C28 64.9721 30.0562 67 33.9867 67ZM34.2232 63.3968C32.5673 63.3968 31.6211 62.5277 31.6211 60.7713V42.4113C31.6211 40.673 32.5673 39.8039 34.2232 39.8039H39.9187C41.5564 39.8039 42.3934 39.5142 43.3215 38.5184L44.7044 36.9974C45.7234 35.8929 46.2693 35.6032 47.8706 35.6032H53.0202C54.6215 35.6032 55.1674 35.8929 56.1682 36.9793L57.5693 38.5184C58.4974 39.5142 59.3344 39.8039 60.9721 39.8039H66.7586C68.4327 39.8039 69.3607 40.673 69.3607 42.4113V60.7713C69.3607 62.5277 68.4327 63.3968 66.7586 63.3968H34.2232ZM50.4909 61.0067C55.9499 61.0067 60.317 56.6611 60.317 51.2111C60.317 45.761 55.9499 41.4154 50.4909 41.4154C45.0501 41.4154 40.683 45.761 40.683 51.2111C40.683 56.6611 45.0501 61.0067 50.4909 61.0067ZM60.9357 44.7289C60.9357 46.0507 62.0093 47.0828 63.3195 47.0647C64.5932 47.0647 65.6668 46.0326 65.6668 44.7289C65.6668 43.4615 64.575 42.3751 63.3195 42.3751C62.0093 42.3751 60.9357 43.4615 60.9357 44.7289ZM50.4909 57.7113C46.9062 57.7113 43.9765 54.8143 43.9765 51.2111C43.9765 47.5898 46.888 44.7108 50.4909 44.7108C54.112 44.7108 57.0235 47.5898 57.0235 51.2111C57.0235 54.8143 54.112 57.7113 50.4909 57.7113Z" fill="#00DFDD"/>
</svg>
