<svg width="208" height="976" viewBox="0 0 208 976" fill="none" xmlns="http://www.w3.org/2000/svg">
<path d="M198 82.6205L207.45 78.8464L198 72.4204L198 82.6205Z" fill="#FFF387"/>
<path d="M147.16 306.175L145.59 295.302L135.25 299.147L147.16 306.175Z" fill="#EF5E3E"/>
<path d="M170.95 209.764L174.71 192.506L161.86 204.011L170.95 209.764Z" fill="#00DDD9"/>
<path d="M79.8299 243.271L95.4999 226.961L71.6799 229.838L79.8299 243.271Z" fill="#FFF387"/>
<path d="M160.851 14.5103L129.792 15.625L141.835 36.7932L160.851 14.5103Z" fill="#00DDD9"/>
<path d="M17.7799 298.392L34.9399 282.837L10.4199 285.653L17.7799 298.392Z" fill="#EF5E3E"/>
<path d="M17.01 196.29L19.77 174.095L5.97998 176.277L17.01 196.29Z" fill="#FFF387"/>
<path d="M139.14 129.306L139.14 118.994L128.72 122.747L139.14 129.306Z" fill="#FFF387"/>
<path d="M44.7501 93.3611L55.7801 86.1701L42.6001 83.0387L44.7501 93.3611Z" fill="#00DDD9"/>
<path d="M59.45 30.2699L44.13 9.63519L34.02 24.0172L59.45 30.2699Z" fill="#EF5E3E"/>
<path d="M198 814.984L207.45 811.21L198 804.784L198 814.984Z" fill="#FFF387"/>
<path d="M170.95 942.128L174.71 924.87L161.86 936.375L170.95 942.128Z" fill="#00DDD9"/>
<path d="M79.8299 975.635L95.4999 959.325L71.6799 962.202L79.8299 975.635Z" fill="#FFF387"/>
<path d="M160.851 746.874L129.792 747.989L141.835 769.157L160.851 746.874Z" fill="#00DDD9"/>
<path d="M17.01 928.654L19.77 906.458L5.97998 908.641L17.01 928.654Z" fill="#FFF387"/>
<path d="M139.14 861.67L139.14 851.358L128.72 855.111L139.14 861.67Z" fill="#FFF387"/>
<path d="M44.7501 825.725L55.7801 818.534L42.6001 815.403L44.7501 825.725Z" fill="#00DDD9"/>
<path d="M57.92 746.634L42.6 725.999L32.49 740.381L57.92 746.634Z" fill="#EF5E3E"/>
<path d="M6.01018e-07 635.025L12.87 628.15L0 621.275L6.01018e-07 635.025Z" fill="#FFF387"/>
<path d="M70.1801 608.454L60.3801 588.757L49.3401 598.611L70.1801 608.454Z" fill="#00DDD9"/>
<path d="M102.06 518.428L102.06 493.101L77.23 500.914L102.06 518.428Z" fill="#FFF387"/>
<path d="M33.4099 437.766L31.8699 426.832L22.6799 432.299L33.4099 437.766Z" fill="#FFF387"/>
<path d="M145.58 638.462L166.72 623.458L140.98 618.46L145.58 638.462Z" fill="#FFF387"/>
<path d="M153.85 467.469L151.71 453.403L140.98 460.43L153.85 467.469Z" fill="#EF5E3E"/>
<path d="M140.98 378.065L140.98 366.182L130.25 372.118L140.98 378.065Z" fill="#00DDD9"/>
<path d="M67.0099 391.366L69.5899 367.865L52.9099 370.66L67.0099 391.366Z" fill="#EF5E3E"/>
</svg>
