<svg width="208" height="976" viewBox="0 0 207 976" fill="none" xmlns="http://www.w3.org/2000/svg">
<path d="M9.44995 82.9853L-4.60573e-05 79.2112L9.44995 72.7852L9.44995 82.9853Z" fill="#FFF387"/>
<path d="M60.2899 306.54L61.86 295.667L72.2 299.512L60.2899 306.54Z" fill="#EF5E3E"/>
<path d="M36.4998 210.129L32.7398 192.87L45.5898 204.376L36.4998 210.129Z" fill="#00DDD9"/>
<path d="M127.62 243.636L111.95 227.326L135.77 230.203L127.62 243.636Z" fill="#FFF387"/>
<path d="M46.5989 14.8751L77.6577 15.9898L65.6152 37.158L46.5989 14.8751Z" fill="#00DDD9"/>
<path d="M189.67 298.757L172.51 283.202L197.03 286.017L189.67 298.757Z" fill="#EF5E3E"/>
<path d="M190.44 196.655L187.68 174.459L201.47 176.642L190.44 196.655Z" fill="#FFF387"/>
<path d="M68.31 129.671L68.31 119.359L78.73 123.112L68.31 129.671Z" fill="#FFF387"/>
<path d="M162.7 93.7259L151.67 86.5349L164.85 83.4035L162.7 93.7259Z" fill="#00DDD9"/>
<path d="M148 30.6347L163.32 10L173.43 24.3821L148 30.6347Z" fill="#EF5E3E"/>
<path d="M9.44995 815.349L-4.60573e-05 811.575L9.44995 805.149L9.44995 815.349Z" fill="#FFF387"/>
<path d="M36.4998 942.493L32.7398 925.234L45.5898 936.74L36.4998 942.493Z" fill="#00DDD9"/>
<path d="M127.62 976L111.95 959.69L135.77 962.567L127.62 976Z" fill="#FFF387"/>
<path d="M46.5989 747.239L77.6577 748.354L65.6152 769.522L46.5989 747.239Z" fill="#00DDD9"/>
<path d="M190.44 929.019L187.68 906.823L201.47 909.006L190.44 929.019Z" fill="#FFF387"/>
<path d="M68.31 862.035L68.31 851.723L78.73 855.476L68.31 862.035Z" fill="#FFF387"/>
<path d="M162.7 826.09L151.67 818.899L164.85 815.767L162.7 826.09Z" fill="#00DDD9"/>
<path d="M149.53 746.999L164.85 726.364L174.96 740.746L149.53 746.999Z" fill="#EF5E3E"/>
<path d="M207.45 635.39L194.58 628.515L207.45 621.64L207.45 635.39Z" fill="#FFF387"/>
<path d="M137.27 608.818L147.07 589.122L158.11 598.975L137.27 608.818Z" fill="#00DDD9"/>
<path d="M105.39 518.793L105.39 493.466L130.22 501.279L105.39 518.793Z" fill="#FFF387"/>
<path d="M174.04 438.131L175.58 427.196L184.77 432.664L174.04 438.131Z" fill="#FFF387"/>
<path d="M61.87 638.827L40.73 623.823L66.47 618.825L61.87 638.827Z" fill="#FFF387"/>
<path d="M53.6 467.833L55.74 453.767L66.47 460.795L53.6 467.833Z" fill="#EF5E3E"/>
<path d="M66.47 378.43L66.47 366.547L77.2 372.483L66.47 378.43Z" fill="#00DDD9"/>
<path d="M140.44 391.731L137.86 368.23L154.54 371.025L140.44 391.731Z" fill="#EF5E3E"/>
</svg>
